# xmcd CD database file
#
# Track frame offsets:
#	150
#	16764
#	34054
#	49218
#	66660
#	84610
#	101212
#	118559
#	134918
#	152005
#	171037
#	193959
#	212836
#	228838
#
# Disc length: 3270 seconds
#
# Revision: 1
# Processed by: cddbd v1.5.1PL0 Copyright (c) Steve Scherf et al.
# Submitted via: CDex 1.51
#
DISCID=cb0cc40e
DTITLE=矢沢永吉 - SUBWAY EXPRESS
DYEAR=1998
DGENRE=Rock
TTITLE0=馬鹿もほどほどに
TTITLE1=黒く塗りつぶせ
TTITLE2=兄貴に相談
TTITLE3=ライフ・イズ・ヴェイン
TTITLE4=サブウェイ特急
TTITLE5=バイ・バイ・サンキュー・ガール
TTITLE6=チャイナタウン
TTITLE7=古いラヴ・レター
TTITLE8=ガラスの街
TTITLE9=世話がやけるぜ
TTITLE10=燃えるサンセット
TTITLE11=アップタイト
TTITLE12=親友
TTITLE13=セクシーキャット
EXTD=YEAR: 1998
EXTT0=
EXTT1=
EXTT2=
EXTT3=
EXTT4=
EXTT5=
EXTT6=
EXTT7=
EXTT8=
EXTT9=
EXTT10=
EXTT11=
EXTT12=
EXTT13=
PLAYORDER=
